<svg width="20" height="20" viewBox="0 0 20 20" fill="none" xmlns="http://www.w3.org/2000/svg">
<path d="M11.0283 16.8767L17.5 10.25" stroke="#99A1AF" stroke-width="1.66667" stroke-linecap="round" stroke-linejoin="round"/>
<path d="M13.3333 5.0001L6.32166 12.1551C6.00921 12.4676 5.83369 12.8915 5.83369 13.3334C5.83369 13.7754 6.00921 14.1992 6.32166 14.5118C6.63421 14.8242 7.05806 14.9997 7.5 14.9997C7.94194 14.9997 8.36578 14.8242 8.67833 14.5118L15.69 7.35677C16.3149 6.73168 16.6659 5.88398 16.6659 5.0001C16.6659 4.11622 16.3149 3.26853 15.69 2.64344C15.0649 2.01853 14.2172 1.66748 13.3333 1.66748C12.4494 1.66748 11.6018 2.01853 10.9767 2.64344L3.96416 9.7976C3.0264 10.7354 2.49957 12.0072 2.49957 13.3334C2.49957 14.6596 3.0264 15.9315 3.96416 16.8693C4.90192 17.807 6.1738 18.3339 7.5 18.3339C8.82619 18.3339 10.0981 17.807 11.0358 16.8693" stroke="#99A1AF" stroke-width="1.66667" stroke-linecap="round" stroke-linejoin="round"/>
</svg>
