<svg xmlns="http://www.w3.org/2000/svg" width="22" height="22" viewBox="0 0 22 22" fill="none">
  <path d="M9.41235 19.25C9.57327 19.5287 9.8047 19.7601 10.0834 19.921C10.3621 20.0819 10.6782 20.1666 11 20.1666C11.3218 20.1666 11.638 20.0819 11.9166 19.921C12.1953 19.7601 12.4268 19.5287 12.5877 19.25" stroke="#111827" stroke-width="1.83333" stroke-linecap="round" stroke-linejoin="round"/>
  <path d="M15.5833 15.5832H3.66663C3.48898 15.5832 3.31514 15.5317 3.16625 15.4348C3.01736 15.3379 2.89984 15.1998 2.82798 15.0373C2.75612 14.8748 2.73301 14.695 2.76148 14.5196C2.78994 14.3443 2.86874 14.181 2.9883 14.0496C4.20746 12.7928 5.49996 11.4572 5.49996 7.33316C5.49983 6.79215 5.57952 6.25408 5.73646 5.73633" stroke="#111827" stroke-width="1.83333" stroke-linecap="round" stroke-linejoin="round"/>
  <path d="M1.83337 1.8335L20.1667 20.1668" stroke="#111827" stroke-width="1.83333" stroke-linecap="round" stroke-linejoin="round"/>
  <path d="M7.94568 2.75906C8.77387 2.20602 9.73668 1.88822 10.7314 1.83957C11.726 1.79093 12.7153 2.01327 13.5935 2.48286C14.4717 2.95245 15.2059 3.65168 15.7178 4.50592C16.2297 5.36016 16.5001 6.33735 16.5 7.33322C16.5 9.79631 17.2058 11.5985 18.0648 12.8791" stroke="#111827" stroke-width="1.83333" stroke-linecap="round" stroke-linejoin="round"/>
</svg>