<svg xmlns="http://www.w3.org/2000/svg" width="22" height="22" viewBox="0 0 22 22" fill="none">
  <g clip-path="url(#clip0_34_259)">
    <path d="M14.6667 11.9168L19.4544 15.1087C19.5235 15.1546 19.6036 15.1809 19.6865 15.1849C19.7693 15.1889 19.8516 15.1703 19.9247 15.1312C19.9978 15.092 20.0589 15.0338 20.1015 14.9627C20.1441 14.8916 20.1666 14.8102 20.1667 14.7273V7.21433C20.1667 7.13368 20.1455 7.05446 20.1051 6.98466C20.0647 6.91485 20.0066 6.85694 19.9367 6.81677C19.8667 6.7766 19.7874 6.75559 19.7068 6.75586C19.6262 6.75614 19.547 6.77768 19.4774 6.81833L14.6667 9.62516" stroke="#111827" stroke-width="1.83333" stroke-linecap="round" stroke-linejoin="round"/>
    <path d="M12.8333 5.5H3.66665C2.65412 5.5 1.83331 6.32081 1.83331 7.33333V14.6667C1.83331 15.6792 2.65412 16.5 3.66665 16.5H12.8333C13.8458 16.5 14.6666 15.6792 14.6666 14.6667V7.33333C14.6666 6.32081 13.8458 5.5 12.8333 5.5Z" stroke="#111827" stroke-width="1.83333" stroke-linecap="round" stroke-linejoin="round"/>
  </g>
  <defs>
    <clipPath id="clip0_34_259">
      <rect width="22" height="22" fill="white"/>
    </clipPath>
  </defs>
</svg>