<svg width="20" height="20" viewBox="0 0 20 20" fill="none" xmlns="http://www.w3.org/2000/svg">
  <path d="M10 10.8333C10.4602 10.8333 10.8333 10.4602 10.8333 10C10.8333 9.53977 10.4602 9.16667 10 9.16667C9.53977 9.16667 9.16667 9.53977 9.16667 10C9.16667 10.4602 9.53977 10.8333 10 10.8333Z" fill="#6B7280"/>
  <path d="M14.1667 10.8333C14.6269 10.8333 15 10.4602 15 10C15 9.53977 14.6269 9.16667 14.1667 9.16667C13.7064 9.16667 13.3333 9.53977 13.3333 10C13.3333 10.4602 13.7064 10.8333 14.1667 10.8333Z" fill="#6B7280"/>
  <path d="M5.83333 10.8333C6.29357 10.8333 6.66667 10.4602 6.66667 10C6.66667 9.53977 6.29357 9.16667 5.83333 9.16667C5.3731 9.16667 5 9.53977 5 10C5 10.4602 5.3731 10.8333 5.83333 10.8333Z" fill="#6B7280"/>
</svg>
