<svg width="20" height="20" viewBox="0 0 20 20" fill="none" xmlns="http://www.w3.org/2000/svg">
  <path d="M8.25 2.5H11.75L12.25 4.375C12.8267 4.55 13.3746 4.8304 13.875 5.205L15.625 4.375L17.5 7.625L15.875 8.75C15.95 9.15 16 9.5733 16 10C16 10.4267 15.95 10.85 15.875 11.25L17.5 12.375L15.625 15.625L13.875 14.795C13.3746 15.1696 12.8267 15.45 12.25 15.625L11.75 17.5H8.25L7.75 15.625C7.1733 15.45 6.6254 15.1696 6.125 14.795L4.375 15.625L2.5 12.375L4.125 11.25C4.05 10.85 4 10.4267 4 10C4 9.5733 4.05 9.15 4.125 8.75L2.5 7.625L4.375 4.375L6.125 5.205C6.6254 4.8304 7.1733 4.55 7.75 4.375L8.25 2.5Z" stroke="#6B7280" stroke-width="1.5" stroke-linejoin="round"/>
  <path d="M10 12.5C11.3807 12.5 12.5 11.3807 12.5 10C12.5 8.61929 11.3807 7.5 10 7.5C8.61929 7.5 7.5 8.61929 7.5 10C7.5 11.3807 8.61929 12.5 10 12.5Z" stroke="#6B7280" stroke-width="1.5" stroke-linecap="round" stroke-linejoin="round"/>
</svg>
