<svg xmlns="http://www.w3.org/2000/svg" width="20" height="20" viewBox="0 0 20 20" fill="none">
  <path d="M13.3334 10.8334L17.6859 13.7351C17.7486 13.7768 17.8215 13.8008 17.8968 13.8044C17.9721 13.808 18.0469 13.7911 18.1134 13.7555C18.1798 13.7199 18.2354 13.667 18.2741 13.6024C18.3129 13.5377 18.3333 13.4638 18.3334 13.3884V6.55839C18.3334 6.48508 18.3141 6.41306 18.2774 6.3496C18.2406 6.28614 18.1878 6.23349 18.1243 6.19697C18.0607 6.16045 17.9886 6.14136 17.9153 6.1416C17.842 6.14185 17.77 6.16144 17.7067 6.19839L13.3334 8.75006" stroke="#4A5565" stroke-width="1.66667" stroke-linecap="round" stroke-linejoin="round"/>
  <path d="M11.6666 5H3.33329C2.41282 5 1.66663 5.74619 1.66663 6.66667V13.3333C1.66663 14.2538 2.41282 15 3.33329 15H11.6666C12.5871 15 13.3333 14.2538 13.3333 13.3333V6.66667C13.3333 5.74619 12.5871 5 11.6666 5Z" stroke="#4A5565" stroke-width="1.66667" stroke-linecap="round" stroke-linejoin="round"/>
</svg>