<svg xmlns="http://www.w3.org/2000/svg" width="48" height="48" viewBox="0 0 48 48" fill="none">
  <path d="M21.1529 6.33708L27.5857 6.33691C34.4876 6.3427 40.736 11.5712 41.2777 18.5741C41.359 19.6267 41.3203 20.793 41.3203 21.8802L41.3199 27.5203C41.3135 34.4048 36.3506 40.1965 29.4776 41.059C28.6296 41.1654 27.7477 41.1363 26.8945 41.1356L19.7562 41.1384C13.0917 41.1502 7.4281 35.6262 6.74134 29.0756C6.62094 27.9272 6.68239 26.5959 6.6822 25.4238L6.68169 19.9603C6.68241 19.0434 6.7299 18.143 6.89272 17.2414C7.92516 11.5856 12.6891 7.24779 18.3333 6.45068C19.2704 6.31833 20.2089 6.33577 21.1529 6.33708ZM28.3533 37.5476L28.3959 37.5375C28.7098 37.4651 29.0379 37.4477 29.3571 37.403C33.2677 36.8543 36.7247 33.6809 37.5631 29.8165C37.8155 28.6528 37.7817 27.5332 37.7792 26.3515L37.7831 21.1283C37.7859 17.0549 36.8499 13.8675 33.116 11.5164C30.2632 9.72 28.1238 9.96021 24.9476 9.96052L19.6885 9.96089C19.0775 10.0098 18.4673 10.0531 17.8688 10.1808C13.9476 11.017 10.8609 14.4874 10.3648 18.4479C10.268 19.2202 10.2884 19.9842 10.2884 20.7611L10.2885 26.4825C10.2884 27.2489 10.2728 28.0256 10.3394 28.7824C10.7505 33.457 14.6628 37.1623 19.3118 37.5094C20.1269 37.5701 20.9619 37.548 21.7825 37.548L26.2324 37.5476C26.8242 37.5473 27.8041 37.5115 28.3533 37.5476Z" fill="#2563EB"/>
  <path d="M16.5636 14.6972C19.0151 14.6715 21.5194 14.6965 23.9747 14.6965L26.2678 14.6967C27.0877 14.6968 27.9263 14.6741 28.7344 14.8336C34.2792 15.9363 36.9661 22.4395 33.6101 27.1078C33.4425 27.3413 33.2501 27.5524 33.0825 27.7863C33.0682 28.0163 33.0795 28.3606 33.0802 28.5989L33.0849 30.0478C33.0877 30.8072 33.1488 31.2961 32.5927 31.8954C31.1271 33.5388 29.37 31.3573 28.3533 30.3666H18.9727L17.45 30.3682C17.0958 30.3689 16.6664 30.3877 16.327 30.3274C14.2535 29.9583 14.4769 26.8137 16.7015 26.7577C17.3949 26.7401 18.078 26.7497 18.7663 26.7499L26.5254 26.7506C27.0617 26.7509 27.6209 26.7767 28.1492 26.6747C32.3037 25.8717 32.7244 20.0489 28.5694 18.4989C27.8552 18.2332 27.0628 18.2784 26.3131 18.2787L17.2179 18.2816C16.6204 18.2837 16.083 18.3251 15.5795 17.9499C14.2604 16.9669 14.828 14.9477 16.5636 14.6972Z" fill="#2563EB"/>
  <path d="M16.4668 20.7889C17.0489 20.771 17.712 20.7876 18.2987 20.7883L23.8669 20.788C24.8018 20.7879 25.7963 20.6782 26.3421 21.6494C27.0584 22.9237 26.2847 24.1132 24.9891 24.4167C24.3516 24.3942 23.5692 24.416 22.9171 24.4163L17.3441 24.4174C17.043 24.4174 16.7068 24.4301 16.4099 24.3938C14.4001 24.1418 14.2538 21.2004 16.4668 20.7889Z" fill="#2563EB"/>
</svg>
