<svg xmlns="http://www.w3.org/2000/svg" width="32" height="32" viewBox="0 0 32 32" fill="none">
  <path d="M14.102 4.2246L18.3905 4.22449C22.9917 4.22835 27.1573 7.71402 27.5184 12.3826C27.5727 13.0843 27.5469 13.8618 27.5469 14.5867L27.5466 18.3468C27.5423 22.9364 24.2337 26.7975 19.6517 27.3725C19.0864 27.4435 18.4984 27.4241 17.9297 27.4236L13.1708 27.4255C8.72778 27.4333 4.95206 23.7507 4.49422 19.3836C4.41395 18.618 4.45492 17.7305 4.45479 16.9491L4.45445 13.3067C4.45494 12.6955 4.48659 12.0952 4.59514 11.4942C5.28344 7.72363 8.45942 4.83174 12.2222 4.30033C12.847 4.2121 13.4726 4.22372 14.102 4.2246ZM18.9022 25.0316L18.9306 25.0249C19.1398 24.9766 19.3586 24.965 19.5714 24.9352C22.1784 24.5694 24.4831 22.4538 25.042 19.8775C25.2103 19.1018 25.1878 18.3553 25.1861 17.5675L25.1887 14.0854C25.1906 11.3698 24.5666 9.24488 22.0773 7.67747C20.1755 6.47988 18.7492 6.64002 16.6317 6.64022L13.1257 6.64047C12.7183 6.67307 12.3115 6.70196 11.9125 6.78705C9.2984 7.34453 7.24062 9.65814 6.90983 12.2985C6.84531 12.8134 6.85892 13.3227 6.85895 13.8406L6.859 17.6549C6.8589 18.1658 6.84855 18.6836 6.89292 19.1882C7.16701 22.3046 9.7752 24.7747 12.8745 25.0061C13.4179 25.0466 13.9746 25.0319 14.5217 25.0319L17.4883 25.0316C17.8828 25.0314 18.5361 25.0075 18.9022 25.0316Z" fill="#2563EB"/>
  <path d="M11.0424 9.79801C12.6767 9.78088 14.3462 9.79757 15.9831 9.79756L17.5119 9.79767C18.0584 9.79776 18.6175 9.7826 19.1562 9.88896C22.8528 10.6241 24.6441 14.9595 22.4067 18.0718C22.295 18.2274 22.1667 18.3682 22.055 18.5241C22.0455 18.6774 22.053 18.9069 22.0534 19.0658L22.0566 20.0318C22.0584 20.538 22.0992 20.8639 21.7284 21.2635C20.7514 22.3591 19.58 20.9047 18.9022 20.2443H12.6484L11.6333 20.2454C11.3972 20.2458 11.1109 20.2583 10.8847 20.2182C9.50231 19.9721 9.65125 17.8757 11.1343 17.8383C11.5966 17.8266 12.052 17.833 12.5109 17.8332L17.6836 17.8336C18.0411 17.8338 18.4139 17.851 18.7661 17.783C21.5358 17.2477 21.8162 13.3658 19.0462 12.3325C18.5702 12.1553 18.0419 12.1855 17.542 12.1857L11.4786 12.1876C11.0802 12.189 10.722 12.2166 10.3863 11.9664C9.50695 11.3111 9.88534 9.96503 11.0424 9.79801Z" fill="#2563EB"/>
  <path d="M10.9778 13.8592C11.366 13.8474 11.808 13.8584 12.1991 13.8589L15.9113 13.8587C16.5345 13.8586 17.1975 13.7854 17.5614 14.433C18.0389 15.2825 17.5231 16.0755 16.6594 16.2778C16.2344 16.2628 15.7128 16.2773 15.278 16.2775L11.5628 16.2783C11.362 16.2783 11.1379 16.2867 10.9399 16.2625C9.60008 16.0945 9.5025 14.1336 10.9778 13.8592Z" fill="#2563EB"/>
</svg>